<svg width="205" height="203" viewBox="0 0 205 203" fill="none" xmlns="http://www.w3.org/2000/svg">
<defs>
  <linearGradient id="brand-gradient" x1="0" y1="203" x2="205" y2="0" gradientUnits="userSpaceOnUse">
    <stop offset="0%" stop-color="#F9477A"/>
    <stop offset="28%" stop-color="#FF8301"/>
    <stop offset="50%" stop-color="#FFAF00"/>
    <stop offset="74%" stop-color="#65C9CA"/>
    <stop offset="100%" stop-color="#648AD7"/>
  </linearGradient>
</defs>
<path d="M43.5763 140.775L14.7256 152.874L12.1389 146.827L23.954 141.873L18.4993 129.118L6.68463 134.072L4.09868 128.026L32.9497 115.927L35.5349 121.974L23.3592 127.08L28.8139 139.835L40.99 134.729L43.5763 140.775Z" fill="url(#brand-gradient)"/>
<path d="M6.79959 110.55C6.89997 111.594 6.65988 112.482 6.08044 113.213C5.50025 113.944 4.72229 114.356 3.74545 114.449C2.78208 114.539 1.94607 114.281 1.23666 113.67C0.527619 113.061 0.122723 112.234 0.0223416 111.189C-0.0784144 110.145 0.161676 109.258 0.741492 108.526C1.32131 107.795 2.0929 107.383 3.05626 107.293C4.03311 107.201 4.87586 107.459 5.58452 108.069C6.29394 108.678 6.69884 109.505 6.79959 110.55ZM33.37 111.007L10.4219 113.174L9.85598 107.295L32.804 105.128L33.37 111.007Z" fill="url(#brand-gradient)"/>
<path d="M43.7782 91.141C43.3856 93.3082 42.6747 95.1427 41.6447 96.6437C40.615 98.1451 39.3595 99.3001 37.8774 100.109C36.3953 100.919 34.7806 101.379 33.0332 101.489L34.0865 95.6757C35.5053 95.5466 36.6803 95.0017 37.6115 94.0418C38.543 93.0827 39.1449 91.8505 39.4172 90.3461C39.7566 88.472 39.5348 86.9494 38.7505 85.777C37.9662 84.6049 36.6406 83.8523 34.7742 83.5208L32.2639 83.0749C31.8392 82.9993 31.6028 83.0957 31.5537 83.3628C31.5215 83.5419 31.6062 83.7741 31.8066 84.0593C32.3961 84.9143 32.7872 85.9246 32.9816 87.0907C33.1756 88.2572 33.1554 89.4838 32.922 90.7712C32.5388 92.8876 31.7111 94.6879 30.4387 96.1723C29.1663 97.657 27.5973 98.7267 25.7312 99.3821C23.8652 100.037 21.8632 100.175 19.7263 99.7953C17.4221 99.3862 15.4965 98.5375 13.9488 97.2487C12.4019 95.9609 11.2962 94.419 10.6313 92.6231C9.96687 90.8272 9.81217 88.9478 10.168 86.9846C10.4362 85.5062 10.9276 84.2448 11.6411 83.2003C12.3554 82.1562 13.2944 81.2438 14.4593 80.4641C14.7477 80.2653 14.941 80.1155 15.0391 80.0142C15.1369 79.9134 15.2002 79.7861 15.2279 79.6333C15.2833 79.3273 15.0459 79.0618 14.5151 78.8351C13.7918 78.5759 13.1034 78.3741 12.4517 78.232L13.2311 73.9292L35.3806 77.8652C37.6077 78.2614 39.415 79.0658 40.8031 80.2794C42.1912 81.4934 43.1388 83.0271 43.6467 84.8801C44.1546 86.7335 44.1988 88.8206 43.7782 91.141ZM28.4026 88.7639C28.7397 86.9027 28.4135 85.2922 27.4246 83.9321C26.4354 82.5724 24.9818 81.7219 23.0633 81.381C21.1448 81.0398 19.4832 81.3365 18.0783 82.2716C16.6729 83.2059 15.8017 84.6038 15.4646 86.465C15.1275 88.3266 15.4534 89.9367 16.443 91.2971C17.4322 92.6572 18.8858 93.5073 20.8039 93.8482C22.7097 94.1872 24.3679 93.8894 25.7792 92.9562C27.1909 92.0226 28.0655 90.6258 28.4026 88.7639Z" fill="url(#brand-gradient)"/>
<path d="M37.4268 74.4096L9.79193 57.3829L12.9431 52.3686L22.8707 58.4852C23.2816 58.7385 23.5629 58.7441 23.715 58.5019C23.8188 58.3372 23.7794 58.0308 23.5985 57.5839C23.1696 56.404 23.0183 55.2164 23.1457 54.0214C23.2723 52.8259 23.7304 51.6016 24.5173 50.3472C25.8859 48.1703 27.6643 46.8904 29.8536 46.5076C32.0425 46.1252 34.4142 46.7209 36.9684 48.2946L49.1284 55.7865L45.9877 60.7844L34.6607 53.8055C33.2614 52.9435 31.9837 52.5874 30.8271 52.7362C29.6701 52.8856 28.7225 53.5488 27.9827 54.725C26.9946 56.2976 26.8238 57.8932 27.4711 59.5118C28.1018 61.106 29.4899 62.5636 31.6324 63.8837L40.5776 69.3949L37.4268 74.4096Z" fill="url(#brand-gradient)"/>
<path d="M57.1145 49.1163L34.9334 25.5304L30.5686 29.5555L52.7497 53.1414L57.1145 49.1163Z" fill="url(#brand-gradient)"/>
<path d="M49.1044 22.4619C48.2223 23.0439 47.3193 23.2549 46.3941 23.0955C45.4693 22.9356 44.7348 22.4516 44.1906 21.6434C43.6535 20.8456 43.4883 19.9936 43.695 19.0867C43.9018 18.1795 44.4464 17.4355 45.3277 16.8531C46.2087 16.2708 47.1118 16.0598 48.0373 16.22C48.9621 16.3799 49.6932 16.8583 50.2303 17.6558C50.7746 18.464 50.9427 19.3215 50.7364 20.2284C50.5292 21.1356 49.9854 21.88 49.1044 22.4619ZM61.2723 45.8571L48.4838 26.8642L53.4463 23.588L66.2344 42.5805L61.2723 45.8571Z" fill="url(#brand-gradient)"/>
<path d="M83.8506 45.5747C81.7347 46.2513 79.7657 46.4927 77.9435 46.2991C76.1216 46.1063 74.5013 45.5525 73.0832 44.6378C71.6647 43.7236 70.4954 42.5285 69.5747 41.0534L75.2508 39.2397C76.0332 40.4184 77.0711 41.1888 78.3648 41.5516C79.6578 41.9139 81.0384 41.8601 82.5074 41.3906C84.3372 40.8057 85.59 39.8951 86.2658 38.6581C86.9415 37.4215 86.9879 35.9094 86.4058 34.1227L85.6223 31.7193C85.4897 31.3124 85.2923 31.1507 85.0312 31.2341C84.8567 31.2901 84.6896 31.473 84.5297 31.7827C84.0454 32.6996 83.3288 33.517 82.3805 34.2351C81.4328 34.9535 80.3301 35.5129 79.0731 35.9149C77.0074 36.5759 75.0133 36.6994 73.0922 36.2855C71.1703 35.8723 69.4788 35.0044 68.0173 33.6817C66.5554 32.3598 65.4913 30.6752 64.8234 28.6289C64.1047 26.4231 63.9549 24.3409 64.3755 22.3829C64.795 20.4249 65.6493 18.7332 66.9367 17.3074C68.2248 15.8824 69.8268 14.8632 71.7438 14.2504C73.1873 13.789 74.5425 13.6247 75.8092 13.7571C77.0752 13.8903 78.33 14.2816 79.5732 14.9325C79.8855 15.0913 80.1106 15.1896 80.2466 15.2278C80.3822 15.2656 80.5253 15.2612 80.6747 15.2133C80.9733 15.1176 81.0984 14.7849 81.0504 14.2152C80.9418 13.4608 80.7972 12.765 80.6174 12.1285L84.8181 10.7855L91.7305 31.9915C92.4257 34.1235 92.5587 36.0818 92.1302 37.8659C91.7013 39.6496 90.7803 41.1988 89.3686 42.5155C87.955 43.8308 86.1159 44.8507 83.8506 45.5747ZM78.7356 31.0212C80.5534 30.4408 81.8347 29.3982 82.582 27.8938C83.3285 26.3894 83.4023 24.7188 82.8033 22.8821C82.2048 21.0458 81.1587 19.7331 79.6646 18.945C78.1708 18.1568 76.5153 18.0533 74.6979 18.6342C72.8806 19.215 71.5988 20.2572 70.8523 21.762C70.1058 23.266 70.032 24.9373 70.6306 26.7733C71.225 28.5977 72.2704 29.9067 73.766 30.7011C75.262 31.4952 76.9183 31.6021 78.7356 31.0212Z" fill="url(#brand-gradient)"/>
<path d="M95.7841 32.164L97.8685 0L103.821 0.378323L103.071 11.9335C103.041 12.4119 103.169 12.6601 103.456 12.6782C103.651 12.6905 103.906 12.5121 104.218 12.1426C105.064 11.2102 106.05 10.517 107.174 10.0626C108.297 9.60826 109.604 9.42837 111.091 9.52332C113.676 9.68763 115.656 10.6338 117.031 12.3633C118.407 14.0925 118.998 16.4436 118.805 19.4161L117.888 33.5694L111.956 33.1918L112.81 20.0084C112.916 18.3801 112.628 17.0961 111.949 16.1577C111.269 15.2185 110.231 14.7056 108.835 14.6162C106.968 14.4975 105.468 15.1032 104.333 16.4329C103.213 17.7374 102.572 19.6371 102.41 22.1314L101.735 32.5423L95.7841 32.164Z" fill="url(#brand-gradient)"/>
<path d="M130.406 38.7987C127.823 37.8362 126.125 36.5295 125.313 34.8775C124.501 33.2259 124.613 31.0365 125.649 28.3092L129.262 18.7992L125.168 17.2737L126.874 12.7824L129.316 13.6923C130.148 14.0023 130.816 14.0847 131.318 13.94C131.821 13.7946 132.264 13.4549 132.649 12.9204C132.972 12.4731 133.354 11.8645 133.793 11.0945C134.233 10.3241 134.623 9.60083 134.963 8.92542L138.71 10.3208L136.422 16.3394L142.097 18.4532L140.391 22.9445L134.717 20.8307L131.311 29.795C130.795 31.1533 130.695 32.2256 131.01 33.0145C131.325 33.803 132.101 34.4276 133.337 34.8883C134.158 35.1939 135.052 35.3953 136.021 35.494L134.432 39.6759C133.919 39.6644 133.288 39.5784 132.539 39.417C131.79 39.2549 131.078 39.0487 130.406 38.7987Z" fill="url(#brand-gradient)"/>
<path d="M139.035 43.6738C138.084 43.0789 137.485 42.2944 137.24 41.3219C136.994 40.3487 137.155 39.4188 137.721 38.5316C138.287 37.6448 139.064 37.1048 140.054 36.9119C141.043 36.719 142.013 36.9197 142.964 37.515C143.926 38.1166 144.532 38.901 144.781 39.8691C145.03 40.8368 144.871 41.7637 144.305 42.6509C143.74 43.5381 142.96 44.0807 141.968 44.2791C140.975 44.4772 139.997 44.2758 139.035 43.6738Z" fill="url(#brand-gradient)"/>
<path d="M160.889 62.2242L189.74 50.1257L192.326 56.1726L180.511 61.1271L185.966 73.8821L197.781 68.9276L200.367 74.974L171.516 87.0729L168.93 81.0261L181.106 75.9202L175.651 63.1648L163.475 68.2711L160.889 62.2242Z" fill="url(#brand-gradient)"/>
<path d="M171.096 91.993L194.044 89.8259L194.61 95.705L171.662 97.8719L171.096 91.993ZM197.666 92.4507C197.565 91.4063 197.805 90.518 198.385 89.7865C198.965 89.0555 199.743 88.6438 200.72 88.5518C201.683 88.4606 202.519 88.7198 203.229 89.3296C203.938 89.9394 204.342 90.7661 204.442 91.8102C204.543 92.8546 204.304 93.7422 203.724 94.474C203.144 95.2051 202.372 95.6164 201.408 95.7073C200.432 95.7996 199.59 95.5411 198.88 94.9313C198.171 94.3216 197.767 93.4945 197.666 92.4507Z" fill="url(#brand-gradient)"/>
<path d="M160.687 111.859C161.08 109.692 161.791 107.858 162.821 106.357C163.85 104.855 165.106 103.7 166.588 102.89C168.07 102.081 169.685 101.622 171.432 101.511L170.379 107.325C168.96 107.454 167.785 107.998 166.854 108.958C165.923 109.917 165.321 111.149 165.048 112.653C164.709 114.528 164.931 116.05 165.716 117.223C166.5 118.395 167.825 119.148 169.691 119.479L172.202 119.925C172.626 120 172.863 119.904 172.912 119.637C172.944 119.458 172.859 119.226 172.659 118.941C172.07 118.086 171.678 117.075 171.484 115.909C171.29 114.743 171.31 113.516 171.543 112.229C171.926 110.112 172.754 108.312 174.026 106.827C175.299 105.343 176.868 104.273 178.734 103.618C180.6 102.963 182.602 102.825 184.739 103.205C187.043 103.614 188.969 104.463 190.516 105.751C192.063 107.039 193.169 108.581 193.834 110.377C194.498 112.173 194.653 114.052 194.297 116.016C194.029 117.494 193.538 118.755 192.824 119.8C192.109 120.844 191.17 121.756 190.006 122.536C189.717 122.735 189.525 122.885 189.426 122.986C189.328 123.087 189.265 123.213 189.237 123.366C189.183 123.673 189.419 123.938 189.95 124.164C190.674 124.424 191.361 124.625 192.013 124.767L191.234 129.07L169.085 125.135C166.858 124.739 165.05 123.935 163.662 122.721C162.273 121.507 161.326 119.973 160.818 118.12C160.311 116.266 160.267 114.18 160.687 111.859ZM176.063 114.236C175.726 116.097 176.051 117.707 177.041 119.068C178.03 120.428 179.483 121.278 181.402 121.619C183.32 121.96 184.982 121.663 186.387 120.729C187.792 119.794 188.664 118.396 189.001 116.535C189.338 114.673 189.012 113.063 188.023 111.703C187.034 110.343 185.58 109.493 183.662 109.152C181.756 108.813 180.097 109.11 178.686 110.044C177.275 110.978 176.4 112.374 176.063 114.236Z" fill="url(#brand-gradient)"/>
<path d="M167.039 128.59L194.674 145.617L191.522 150.631L181.595 144.515C181.184 144.261 180.902 144.256 180.751 144.498C180.647 144.662 180.686 144.969 180.867 145.416C181.296 146.596 181.448 147.784 181.32 148.979C181.193 150.174 180.736 151.398 179.948 152.652C178.58 154.829 176.801 156.11 174.612 156.492C172.423 156.874 170.051 156.279 167.497 154.705L155.337 147.213L158.478 142.216L169.805 149.194C171.204 150.056 172.482 150.412 173.639 150.263C174.795 150.115 175.744 149.452 176.483 148.275C177.471 146.702 177.642 145.107 176.995 143.488C176.363 141.894 174.976 140.436 172.833 139.117L163.888 133.605L167.039 128.59Z" fill="url(#brand-gradient)"/>
<path d="M147.346 153.886L169.527 177.471L173.891 173.447L151.71 149.861L147.346 153.886Z" fill="url(#brand-gradient)"/>
<path d="M143.193 157.143L155.981 176.135L151.019 179.412L138.231 160.419L143.193 157.143ZM155.361 180.537C156.243 179.956 157.146 179.744 158.071 179.904C158.996 180.064 159.731 180.548 160.275 181.356C160.812 182.154 160.977 183.006 160.77 183.913C160.563 184.82 160.02 185.565 159.138 186.146C158.257 186.728 157.353 186.939 156.429 186.78C155.504 186.62 154.772 186.141 154.236 185.344C153.692 184.536 153.523 183.678 153.729 182.771C153.936 181.864 154.48 181.12 155.361 180.537Z" fill="url(#brand-gradient)"/>
<path d="M120.615 157.425C122.73 156.749 124.699 156.507 126.522 156.701C128.343 156.894 129.964 157.448 131.382 158.362C132.801 159.277 133.97 160.471 134.89 161.947L129.215 163.76C128.432 162.582 127.394 161.811 126.101 161.449C124.808 161.086 123.427 161.14 121.958 161.61C120.128 162.195 118.875 163.105 118.199 164.342C117.524 165.579 117.477 167.091 118.06 168.878L118.843 171.281C118.976 171.688 119.173 171.85 119.435 171.766C119.609 171.711 119.776 171.528 119.936 171.218C120.421 170.301 121.137 169.483 122.084 168.765C123.033 168.047 124.135 167.487 125.392 167.086C127.458 166.425 129.452 166.301 131.374 166.715C133.295 167.128 134.987 167.996 136.449 169.319C137.91 170.641 138.975 172.325 139.642 174.371C140.36 176.577 140.51 178.66 140.09 180.617C139.671 182.576 138.817 184.268 137.528 185.693C136.241 187.119 134.639 188.137 132.722 188.75C131.278 189.212 129.923 189.376 128.656 189.243C127.39 189.111 126.135 188.719 124.892 188.068C124.58 187.91 124.355 187.811 124.219 187.773C124.083 187.735 123.94 187.74 123.79 187.787C123.492 187.883 123.366 188.215 123.415 188.785C123.523 189.54 123.668 190.235 123.847 190.872L119.646 192.215L112.734 171.009C112.039 168.877 111.906 166.918 112.335 165.135C112.763 163.351 113.684 161.802 115.097 160.486C116.511 159.17 118.349 158.149 120.615 157.425ZM125.73 171.979C123.913 172.56 122.631 173.602 121.884 175.107C121.137 176.611 121.064 178.282 121.662 180.118C122.261 181.955 123.307 183.267 124.801 184.055C126.295 184.843 127.95 184.946 129.768 184.366C131.585 183.786 132.867 182.742 133.614 181.238C134.36 179.734 134.434 178.063 133.836 176.227C133.241 174.403 132.195 173.093 130.7 172.299C129.204 171.505 127.547 171.398 125.73 171.979Z" fill="url(#brand-gradient)"/>
<path d="M108.681 170.836L106.597 203L100.645 202.622L101.393 191.067C101.424 190.588 101.296 190.34 101.009 190.322C100.814 190.31 100.559 190.488 100.247 190.857C99.4007 191.79 98.4149 192.483 97.2912 192.937C96.1676 193.391 94.8615 193.571 93.3734 193.477C90.7889 193.312 88.8094 192.366 87.4336 190.636C86.0586 188.907 85.4664 186.556 85.6593 183.584L86.5766 169.431L92.5092 169.808L91.6549 182.992C91.5492 184.62 91.8362 185.904 92.5156 186.842C93.1958 187.781 94.2337 188.295 95.6301 188.383C97.4972 188.502 98.9973 187.897 100.132 186.567C101.252 185.262 101.893 183.363 102.054 180.869L102.729 170.458L108.681 170.836Z" fill="url(#brand-gradient)"/>
<path d="M74.0601 164.202C76.6434 165.164 78.3409 166.471 79.1522 168.122C79.9646 169.774 79.8523 171.964 78.8159 174.691L75.2029 184.201L79.2972 185.727L77.5911 190.218L75.1489 189.308C74.3171 188.998 73.6496 188.915 73.1469 189.06C72.645 189.206 72.2016 189.545 71.8169 190.08C71.4929 190.526 71.1116 191.136 70.6722 191.906C70.2325 192.676 69.8426 193.399 69.5025 194.075L65.7562 192.68L68.0428 186.661L62.3687 184.547L64.0751 180.056L69.7489 182.17L73.1548 173.205C73.6706 171.847 73.771 170.774 73.4556 169.985C73.1406 169.197 72.3649 168.572 71.1281 168.111C70.3078 167.806 69.4133 167.604 68.4444 167.506L70.0332 163.324C70.5464 163.336 71.1771 163.422 71.9262 163.583C72.6754 163.744 73.387 163.951 74.0601 164.202Z" fill="url(#brand-gradient)"/>
<path d="M65.4303 159.326C66.3817 159.921 66.9798 160.705 67.2248 161.678C67.4709 162.652 67.3106 163.581 66.7446 164.468C66.1787 165.355 65.4015 165.895 64.4115 166.088C63.4223 166.281 62.4522 166.08 61.5008 165.485C60.5386 164.883 59.9337 164.099 59.6842 163.131C59.4355 162.163 59.5939 161.236 60.1599 160.349C60.7255 159.462 61.5049 158.92 62.4983 158.721C63.4905 158.523 64.4684 158.724 65.4303 159.326Z" fill="url(#brand-gradient)"/>
<path d="M152.552 18.1113L155.504 14.9653L154.369 13.9212L154.971 13.2806L158.01 16.0765L157.409 16.7167L156.276 15.6756L153.324 18.8216L152.552 18.1113Z" fill="url(#brand-gradient)"/>
<path d="M154.944 20.3118L158.497 16.5252L159.653 17.5882L157.923 20.8099L161.033 18.8582L162.191 19.9238L158.638 23.7104L157.921 23.0505L160.718 20.0699L157.162 22.3517L156.418 21.6678L158.458 17.9914L155.662 20.972L154.944 20.3118Z" fill="url(#brand-gradient)"/>
<path d="M51.8878 184.871L48.9359 188.017L50.0704 189.061L49.4692 189.702L46.4305 186.906L47.0316 186.265L48.1639 187.307L51.1158 184.161L51.8878 184.871Z" fill="url(#brand-gradient)"/>
<path d="M49.4958 182.67L45.9428 186.457L44.7872 185.394L46.517 182.172L43.407 184.124L42.2489 183.058L45.8023 179.272L46.5196 179.932L43.7228 182.912L47.2784 180.63L48.0219 181.314L45.9817 184.991L48.7785 182.01L49.4958 182.67Z" fill="url(#brand-gradient)"/>
</svg>
